# xmcd
#
# Track frame offsets: 
#        150
#        21800
#        50441
#        70069
#        91534
#        113985
#        135869
#        161172
#        188775
#        221955
#
# Disc length: 3343 seconds
#
# Revision: 1
# Processed by: cddbd v1.5.2PL0 Copyright (c) Steve Scherf et al.
# Submitted via: ExactAudioCopy v0.99pb4
#
DISCID=830d0d0a
DTITLE=Burt Bacharach and Hal David - Magic Moods of Bacharach
DYEAR=2000
DGENRE=Jazz
TTITLE0=I Say A Little Prayer For You
TTITLE1=Alfie
TTITLE2=This Guy's In Love With You
TTITLE3=Anyone Who Had A Heart
TTITLE4=Promises, Promises
TTITLE5=The Look Of Love
TTITLE6=What The World Needs Now
TTITLE7=Close To You
TTITLE8=Walk On By
TTITLE9=I Don't Know What To Do With Myself
EXTD=
EXTT0=
EXTT1=
EXTT2=
EXTT3=
EXTT4=
EXTT5=
EXTT6=
EXTT7=
EXTT8=
EXTT9=
PLAYORDER=
